<svg display="none"
   xmlns="http://www.w3.org/2000/svg">
   <symbol id="icon-update" viewBox="0 0 24 24">
      <path fill-rule="evenodd" d="M20.5,8 L17,12 L19.5,12 C19.5,16.136 16.136,19.5 12,19.5 C9.473,19.5 7.238,18.24 5.878,16.318 L4.534,17.855 C6.275,20.07 8.971,21.5 12,21.5 C17.238,21.5 21.5,17.238 21.5,12 L24,12 L20.5,8 Z M7,12 L4.5,12 C4.5,7.864 7.864,4.5 12,4.5 C14.527,4.5 16.762,5.76 18.122,7.681 L19.466,6.145 C17.725,3.93 15.029,2.5 12,2.5 C6.762,2.5 2.5,6.762 2.5,12 L0,12 L3.5,16 L7,12 Z"/>
   </symbol>

   <symbol id="icon-remove" viewBox="0 0 32 32">
      <g>
         <path d="  M25,10H7v17c0,1.105,0.895,2,2,2h14c1.105,0,2-0.895,2-2V10z" id="XMLID_129_" stroke="#000000" stroke-linecap="round" stroke-linejoin="round" stroke-miterlimit="10"/>
         <path d="  M20,7h-8V5c0-1.105,0.895-2,2-2h4c1.105,0,2,0.895,2,2V7z" id="XMLID_145_" stroke="#000000" stroke-linecap="round" stroke-linejoin="round" stroke-miterlimit="10"/>
         <path d="  M28,10H4V8c0-0.552,0.448-1,1-1h22c0.552,0,1,0.448,1,1V10z" id="XMLID_146_" stroke="#000000" stroke-linecap="round" stroke-linejoin="round" stroke-miterlimit="10"/>
      </g>
   </symbol>
</svg>